<svg width="100%" height="100%" version="1.1" viewBox="-1 0 22 26" xmlns:xlink="http://www.w3.org/1999/xlink" xmlns="http://www.w3.org/2000/svg"><defs /><g id="layer1"><path d="M10 6 L7 9 L9 9 L9 17 L11 17 L11 9 L13 9 L10 6 Z M18 4 C18 3.447001 17.952 3 17.4 3 L2.6 3 C2.048 3 2 3.447001 2 4 C2 4.552999 2.048 5 2.6 5 L17.4 5 C17.952 5 18 4.552999 18 4 Z " fill-rule="evenodd" opacity="1" fill="#333333" fill-opacity="1" /><path d="M10 20 L7 17 L9 17 L9 9 L11 9 L11 17 L13 17 L10 20 Z M18 22 C18 22.553 17.952 23 17.4 23 L2.6 23 C2.048 23 2 22.553 2 22 C2 21.447 2.048 21 2.6 21 L17.4 21 C17.952 21 18 21.447 18 22 Z " fill-rule="evenodd" opacity="1" fill="#333333" fill-opacity="1" /></g></svg>
