
<svg width="100%" height="100%" version="1.1" viewBox="0 -1 24 22" xmlns:xlink="http://www.w3.org/1999/xlink" xmlns="http://www.w3.org/2000/svg">
	<defs />
	<g id="layer1">
		<path d="M6 10 L9 13 L9 11 L17 11 L17 9 L9 9 L9 7 L6 10 Z M4 2 C3.447 2 3 2.047 3 2.6 L3 17.4 C3 17.951 3.447 18 4 18 C4.552 18 5 17.951 5 17.4 L5 2.6 C5 2.047 4.552 2 4 2 Z " fill-rule="evenodd" opacity="1" fill="#333333" fill-opacity="1" />
		<path d="M18 10 L15 13 L15 11 L7 11 L7 9 L15 9 L15 7 L18 10 Z M20 2 C20.553 2 21 2.047 21 2.6 L21 17.4 C21 17.951 20.553 18 20 18 C19.448 18 19 17.951 19 17.4 L19 2.6 C19 2.047 19.448 2 20 2 Z " fill-rule="evenodd" opacity="1" fill="#333333" fill-opacity="1" />
	</g>
</svg>
