
<svg version="1.1" id="Online" xmlns="http://www.w3.org/2000/svg" xmlns:xlink="http://www.w3.org/1999/xlink" x="0px" y="0px" viewBox="0 0 20 20" enable-background="new 0 0 20 20" xml:space="preserve">
<path d="M 9.3085938 3 C 8.9554431 3 8.6112183 3.0354807 8.2773438 3.0996094 L 16.412109 15.833984 C 18.471698 15.311117 20 13.497102 20 11.320312 C 20 8.7343125 17.856844 6.640625 15.214844 6.640625 C 14.937844 6.640625 14.667297 6.6640312 14.404297 6.7070312 C 13.747297 4.5620313 11.715594 3 9.3085938 3 z M 5.9472656 4.2011719 C 4.7612321 5.1547494 3.9882812 6.5813048 3.9882812 8.1992188 C 3.9882813 8.4572188 4.009875 8.7090781 4.046875 8.9550781 C 3.905875 8.9400781 3.7631875 8.9277344 3.6171875 8.9277344 C 1.6191875 8.9277344 0 10.511891 0 12.462891 C -5.9211895e-16 14.415891 1.6191875 16 3.6171875 16 L 13.486328 16 L 5.9472656 4.2011719 z " id="path101" />
<rect transform="rotate(-32.575796)" ry="1.2782491" y="2.5471523" x="0.87948388" height="21.604641" width="2.5564983" id="rect110" style="fill:#000000;stroke-width:0.794693;" /></svg>
