<svg width="20" height="20" xmlns="http://www.w3.org/2000/svg">
 <g>
  <title>Layer 1</title>
  <path fill="#ffffff" id="svg_1" d="m16.783001,10c0,-1.049 0.646,-1.875 1.616999,-2.443c-0.175999,-0.584 -0.407,-1.145 -0.691999,-1.672c-1.089001,0.285 -1.97,-0.141 -2.711,-0.883c-0.741,-0.74 -0.967999,-1.621 -0.683,-2.711c-0.527,-0.285 -1.088,-0.518 -1.672,-0.691c-0.568,0.97 -1.595,1.615 -2.642,1.615c-1.048,0 -2.074,-0.645 -2.643,-1.615c-0.585,0.173 -1.144,0.406 -1.671,0.691c0.285,1.09 0.059,1.971 -0.684,2.711c-0.74,0.742 -1.621,1.168 -2.711,0.883c-0.285,0.527 -0.517,1.088 -0.691,1.672c0.97,0.568 1.615,1.394 1.615,2.443c0,1.047 -0.645,2.074 -1.615,2.643c0.175,0.584001 0.406,1.144 0.691,1.672c1.09,-0.285 1.971,-0.059 2.711,0.682c0.741,0.742001 0.969,1.623001 0.684,2.711c0.527,0.285 1.087,0.518 1.672,0.692999c0.568,-0.973 1.595,-1.616999 2.643001,-1.616999c1.047,0 2.073999,0.645 2.643,1.616999c0.584,-0.175999 1.144,-0.407999 1.672,-0.692999c-0.285,-1.087999 -0.059,-1.969 0.683,-2.711c0.741,-0.74 1.622001,-1.165999 2.710999,-0.882999c0.285002,-0.527 0.517,-1.086 0.692001,-1.672c-0.973,-0.569 -1.618999,-1.395 -1.618999,-2.442zm-6.783001,3.652c-2.018,0 -3.653,-1.635 -3.653,-3.652c0,-2.018 1.636,-3.654 3.653,-3.654c2.018,0 3.652,1.637 3.652,3.654c0,2.018 -1.634001,3.652 -3.652,3.652z" />
 </g>
</svg>